<svg width="187" height="88" viewBox="0 0 187 88" fill="none" xmlns="http://www.w3.org/2000/svg">
<g clip-path="url(#clip0_4132_5567)">
<path fill-rule="evenodd" clip-rule="evenodd" d="M19.1208 9.93764L19.3544 10.5576H12.3459L12.0225 9.93764H19.1208Z" fill="#FFE8AA"/>
<path fill-rule="evenodd" clip-rule="evenodd" d="M19.1208 7.72728L19.3544 8.34726H12.3459L12.0225 7.72728H19.1208Z" fill="#FFE8AA"/>
<path fill-rule="evenodd" clip-rule="evenodd" d="M19.0671 14.3494L19.2917 14.9693H12.2832L11.9688 14.3494H19.0671Z" fill="#FFE8AA"/>
<path fill-rule="evenodd" clip-rule="evenodd" d="M19.0671 12.139L19.2917 12.759H12.2832L11.9688 12.139H19.0671Z" fill="#FFE8AA"/>
<path fill-rule="evenodd" clip-rule="evenodd" d="M19.0934 18.7611L19.3181 19.3811H12.3096L11.9951 18.7611H19.0934Z" fill="#FFE8AA"/>
<path fill-rule="evenodd" clip-rule="evenodd" d="M19.0934 16.5507L19.3181 17.1707H12.3096L11.9951 16.5507H19.0934Z" fill="#FFE8AA"/>
<path fill-rule="evenodd" clip-rule="evenodd" d="M19.0309 23.1728L19.2645 23.7928H12.2561L11.9326 23.1728H19.0309Z" fill="#FFE8AA"/>
<path fill-rule="evenodd" clip-rule="evenodd" d="M19.0309 20.9625L19.2645 21.5825H12.2561L11.9326 20.9625H19.0309Z" fill="#FFE8AA"/>
<path fill-rule="evenodd" clip-rule="evenodd" d="M19.0309 27.5396L19.2645 28.1596H12.2561L11.9326 27.5396H19.0309Z" fill="#FFE8AA"/>
<path fill-rule="evenodd" clip-rule="evenodd" d="M19.0309 25.3383L19.2645 25.9582H12.2561L11.9326 25.3383H19.0309Z" fill="#FFE8AA"/>
<path fill-rule="evenodd" clip-rule="evenodd" d="M19.0309 29.75L19.2645 30.37H12.2561L11.9326 29.75H19.0309Z" fill="#FFE8AA"/>
<path fill-rule="evenodd" clip-rule="evenodd" d="M19.1208 34.0988L19.3544 34.7188H12.3459L12.0225 34.0988H19.1208Z" fill="#7D7F00"/>
<path fill-rule="evenodd" clip-rule="evenodd" d="M19.1208 38.4656L19.3544 39.0946H12.3459L12.0225 38.4656H19.1208Z" fill="#7D7F00"/>
<path fill-rule="evenodd" clip-rule="evenodd" d="M19.1208 36.2643L19.3544 36.8842H12.3459L12.0225 36.2643H19.1208Z" fill="#7D7F00"/>
<path fill-rule="evenodd" clip-rule="evenodd" d="M19.0671 42.8864L19.2917 43.5063H12.2832L11.9688 42.8864H19.0671Z" fill="#7D7F00"/>
<path fill-rule="evenodd" clip-rule="evenodd" d="M19.0671 40.676L19.2917 41.296H12.2832L11.9688 40.676H19.0671Z" fill="#7D7F00"/>
<path fill-rule="evenodd" clip-rule="evenodd" d="M19.1569 45.0877L19.3815 45.7077H12.3731L12.0586 45.0877H19.1569Z" fill="#7D7F00"/>
<path fill-rule="evenodd" clip-rule="evenodd" d="M19.1569 47.2532L19.3815 47.8732H12.3731L12.0586 47.2532H19.1569Z" fill="#7D7F00"/>
<path fill-rule="evenodd" clip-rule="evenodd" d="M19.1569 49.4096L19.3815 50.0296H12.3731L12.0586 49.4096H19.1569Z" fill="#7D7F00"/>
<path fill-rule="evenodd" clip-rule="evenodd" d="M19.0934 51.6649L19.3181 52.2849H12.3096L11.9951 51.6649H19.0934Z" fill="#7D7F00"/>
<path fill-rule="evenodd" clip-rule="evenodd" d="M14.6014 28.7796L13.9814 29.6242V3.26162L14.6014 2.06659V28.7796Z" fill="#FFE8AA"/>
<path fill-rule="evenodd" clip-rule="evenodd" d="M13.577 30.7474L12.957 31.6009V5.23837L13.577 4.04333V30.7474Z" fill="#FFE8AA"/>
<path fill-rule="evenodd" clip-rule="evenodd" d="M15.6883 26.713L15.0684 27.5576V1.19503L15.6883 0V26.713Z" fill="#FFE8AA"/>
<path fill-rule="evenodd" clip-rule="evenodd" d="M16.7754 28.7796L17.3954 29.6242V3.26162L16.7754 2.06659V28.7796Z" fill="#FFE8AA"/>
<path fill-rule="evenodd" clip-rule="evenodd" d="M15.6885 26.713L16.3085 27.5576V1.19503L15.6885 0V26.713Z" fill="#FFE8AA"/>
<path fill-rule="evenodd" clip-rule="evenodd" d="M14.6014 30.3879L13.9814 31.2326V4.86997L14.6014 3.67494V30.3879Z" fill="#FFE8AA"/>
<path fill-rule="evenodd" clip-rule="evenodd" d="M15.6883 28.3124L15.0684 29.166V2.80338L15.6883 1.60835V28.3124Z" fill="#FFE8AA"/>
<path fill-rule="evenodd" clip-rule="evenodd" d="M16.7754 30.3879L17.3954 31.2326V4.86997L16.7754 3.67494V30.3879Z" fill="#FFE8AA"/>
<path fill-rule="evenodd" clip-rule="evenodd" d="M17.8086 30.7743L18.4286 31.6279V5.25634L17.8086 4.0703V30.7743Z" fill="#FFE8AA"/>
<path fill-rule="evenodd" clip-rule="evenodd" d="M15.6885 28.3124L16.3085 29.166V2.80338L15.6885 1.60835V28.3124Z" fill="#FFE8AA"/>
<path fill-rule="evenodd" clip-rule="evenodd" d="M18.8418 32.7421L19.4618 33.5957V7.2241L18.8418 6.03806V32.7421Z" fill="#FFE8AA"/>
<path fill-rule="evenodd" clip-rule="evenodd" d="M21.0518 35.7701L21.6717 36.6237V11.4741L21.0518 10.2791V35.7701Z" fill="#FFE8AA"/>
<path fill-rule="evenodd" clip-rule="evenodd" d="M23.2627 38.7981L23.8827 39.6517V15.6972L23.2627 14.5021V38.7981Z" fill="#FFE8AA"/>
<path fill-rule="evenodd" clip-rule="evenodd" d="M25.4912 41.8531L26.1112 42.6977V19.9382L25.4912 18.7431V41.8531Z" fill="#FFE8AA"/>
<path fill-rule="evenodd" clip-rule="evenodd" d="M28.7077 62.3932V46.2828L27.6924 44.8811V61.4049L28.7077 62.3932Z" fill="#7D7F00"/>
<path fill-rule="evenodd" clip-rule="evenodd" d="M26.4976 60.2548V43.2278L25.4912 41.8261V59.2664L26.4976 60.2548Z" fill="#7D7F00"/>
<path fill-rule="evenodd" clip-rule="evenodd" d="M24.269 58.1253V40.1998L23.2627 38.7981V57.1369L24.269 58.1253Z" fill="#7D7F00"/>
<path fill-rule="evenodd" clip-rule="evenodd" d="M22.0581 55.9868V37.1448L21.0518 35.7521V54.9984L22.0581 55.9868Z" fill="#7D7F00"/>
<path fill-rule="evenodd" clip-rule="evenodd" d="M19.8571 53.8753V34.1438L18.8418 32.7421V52.8869L19.8571 53.8753Z" fill="#7D7F00"/>
<path fill-rule="evenodd" clip-rule="evenodd" d="M3.70185 61.4049V44.8811L2.68652 46.2828V62.3932L3.70185 61.4049Z" fill="#7D7F00"/>
<path fill-rule="evenodd" clip-rule="evenodd" d="M5.91181 59.2664V41.8261L4.89648 43.2278V60.2548L5.91181 59.2664Z" fill="#7D7F00"/>
<path fill-rule="evenodd" clip-rule="evenodd" d="M8.14033 57.1369V38.7981L7.125 40.1998V58.1253L8.14033 57.1369Z" fill="#7D7F00"/>
<path fill-rule="evenodd" clip-rule="evenodd" d="M10.3513 54.9984V35.7521L9.33594 37.1448V55.9868L10.3513 54.9984Z" fill="#7D7F00"/>
<path fill-rule="evenodd" clip-rule="evenodd" d="M12.5522 52.8869V32.7421L11.5459 34.1438V53.8753L12.5522 52.8869Z" fill="#7D7F00"/>
<path fill-rule="evenodd" clip-rule="evenodd" d="M17.7817 51.009V31.2775L16.7754 29.8758V50.0206L17.7817 51.009Z" fill="#7D7F00"/>
<path fill-rule="evenodd" clip-rule="evenodd" d="M16.6763 29.6691V49.4096L15.6969 48.4482L15.6699 48.4212V28.3573L15.6969 28.3214L15.7328 28.3573L16.6763 29.6691Z" fill="#7D7F00"/>
<path fill-rule="evenodd" clip-rule="evenodd" d="M13.6035 50.9641V31.2326L14.6188 29.8309V49.9757L13.6035 50.9641Z" fill="#7D7F00"/>
<path fill-rule="evenodd" clip-rule="evenodd" d="M15.7333 28.3573V48.4212L15.6974 48.4482L14.709 49.4096V29.6691L15.6704 28.3573L15.6974 28.3214L15.7333 28.3573Z" fill="#7D7F00"/>
<path fill-rule="evenodd" clip-rule="evenodd" d="M17.7817 52.2759V32.5444L16.7754 31.1427V51.2875L17.7817 52.2759Z" fill="#7D7F00"/>
<path fill-rule="evenodd" clip-rule="evenodd" d="M16.6763 31.2775V51.018L15.6969 50.0566L15.6699 50.0296V29.9656L15.6969 29.9297L15.7328 29.9656L16.6763 31.2775Z" fill="#7D7F00"/>
<path fill-rule="evenodd" clip-rule="evenodd" d="M13.6035 52.2759V32.5444L14.6188 31.1427V51.2875L13.6035 52.2759Z" fill="#7D7F00"/>
<path fill-rule="evenodd" clip-rule="evenodd" d="M15.7333 29.9656V50.0296L15.6974 50.0566L14.709 51.018V31.2775L15.6704 29.9656L15.6974 29.9297L15.7333 29.9656Z" fill="#7D7F00"/>
<path fill-rule="evenodd" clip-rule="evenodd" d="M19.112 56.0766L19.3366 56.6966H12.3282L12.0137 56.0766H19.112Z" fill="#1E2832"/>
<path fill-rule="evenodd" clip-rule="evenodd" d="M19.112 53.8753L19.3366 54.4952H12.3282L12.0137 53.8753H19.112Z" fill="#1E2832"/>
<path fill-rule="evenodd" clip-rule="evenodd" d="M19.0485 60.4884L19.2731 61.1084H12.2647L11.9502 60.4884H19.0485Z" fill="#1E2832"/>
<path fill-rule="evenodd" clip-rule="evenodd" d="M19.0485 58.287L19.2731 58.907H12.2647L11.9502 58.287H19.0485Z" fill="#1E2832"/>
<path fill-rule="evenodd" clip-rule="evenodd" d="M19.1383 62.6987L19.363 63.3187H12.3545L12.04 62.6987H19.1383Z" fill="#1E2832"/>
<path fill-rule="evenodd" clip-rule="evenodd" d="M19.1383 67.0655L19.363 67.6855H12.3545L12.04 67.0655H19.1383Z" fill="#1E2832"/>
<path fill-rule="evenodd" clip-rule="evenodd" d="M19.1383 64.8642L19.363 65.4841H12.3545L12.04 64.8642H19.1383Z" fill="#1E2832"/>
<path fill-rule="evenodd" clip-rule="evenodd" d="M12.5516 6.03806L11.9316 7.2241V33.5957L12.5516 32.7421V6.03806Z" fill="#FFE8AA"/>
<path fill-rule="evenodd" clip-rule="evenodd" d="M10.3504 10.2791L9.73047 11.4741V36.6237L10.3504 35.7701V10.2791Z" fill="#FFE8AA"/>
<path fill-rule="evenodd" clip-rule="evenodd" d="M8.14049 14.5021L7.52051 15.6972V39.6517L8.14049 38.7981V14.5021Z" fill="#FFE8AA"/>
<path fill-rule="evenodd" clip-rule="evenodd" d="M5.91197 18.7431L5.29199 19.9382V42.6977L5.91197 41.8531V18.7431Z" fill="#FFE8AA"/>
<path fill-rule="evenodd" clip-rule="evenodd" d="M29.1929 62.8245L27.6924 61.3779V87.7584H29.1929V62.8245Z" fill="#1E2832"/>
<path fill-rule="evenodd" clip-rule="evenodd" d="M31.3939 64.954L29.9023 63.5074V87.7585H31.3939V64.954Z" fill="#1E2832"/>
<path fill-rule="evenodd" clip-rule="evenodd" d="M25.4912 59.2394V87.7405H26.9828V60.686L25.4912 59.2394Z" fill="#1E2832"/>
<path fill-rule="evenodd" clip-rule="evenodd" d="M23.2627 59.2664V87.7585H24.7542V60.713L23.2627 59.2664Z" fill="#1E2832"/>
<path fill-rule="evenodd" clip-rule="evenodd" d="M21.0527 59.2844V87.7854H22.5443V60.731L21.0527 59.2844Z" fill="#1E2832"/>
<path fill-rule="evenodd" clip-rule="evenodd" d="M18.8418 59.2035V87.7045H20.3423V60.6501L18.8418 59.2035Z" fill="#1E2832"/>
<path fill-rule="evenodd" clip-rule="evenodd" d="M23.2627 57.1279V74.4334L23.8827 74.8018V87.7584H24.7542V58.5745L23.2627 57.1279Z" fill="#1E2832"/>
<path fill-rule="evenodd" clip-rule="evenodd" d="M21.0527 54.9984V73.1665L21.6727 73.5349V87.7854H22.5443V56.445L21.0527 54.9984Z" fill="#1E2832"/>
<path fill-rule="evenodd" clip-rule="evenodd" d="M18.8418 52.824V71.8457L19.4618 72.1961V87.7046H20.3423V54.2706L18.8418 52.824Z" fill="#1E2832"/>
<path fill-rule="evenodd" clip-rule="evenodd" d="M15.7148 49.778V68.7997L16.3348 69.1411V87.7045H17.2154V51.2246L15.7148 49.778Z" fill="#1E2832"/>
<path fill-rule="evenodd" clip-rule="evenodd" d="M2.20996 87.7584H3.7015V61.3779L2.20996 62.8245V87.7584Z" fill="#1E2832"/>
<path fill-rule="evenodd" clip-rule="evenodd" d="M0 87.7585H1.49154V63.5074L0 64.954V87.7585Z" fill="#1E2832"/>
<path fill-rule="evenodd" clip-rule="evenodd" d="M4.41211 60.686V87.7405H5.91264V59.2394L4.41211 60.686Z" fill="#1E2832"/>
<path fill-rule="evenodd" clip-rule="evenodd" d="M6.64941 60.713V87.7585H8.14096V59.2664L6.64941 60.713Z" fill="#1E2832"/>
<path fill-rule="evenodd" clip-rule="evenodd" d="M8.85059 60.6501V87.7045H10.3511V59.2035L8.85059 60.6501Z" fill="#1E2832"/>
<path fill-rule="evenodd" clip-rule="evenodd" d="M11.0605 60.686V87.7405H12.5521V59.2394L11.0605 60.686Z" fill="#1E2832"/>
<path fill-rule="evenodd" clip-rule="evenodd" d="M6.64941 58.5745V87.7584H7.52098V74.8018L8.14096 74.4334V57.1279L6.64941 58.5745Z" fill="#1E2832"/>
<path fill-rule="evenodd" clip-rule="evenodd" d="M8.85059 56.3642V87.7045H9.73114V73.454L10.3511 73.0856V54.9175L8.85059 56.3642Z" fill="#1E2832"/>
<path fill-rule="evenodd" clip-rule="evenodd" d="M11.0605 54.3066V87.7405H11.9321V72.232L12.5521 71.8816V52.8599L11.0605 54.3066Z" fill="#1E2832"/>
<path fill-rule="evenodd" clip-rule="evenodd" d="M14.2236 51.2246V87.7405H15.0952V69.1411L15.7152 68.7997V49.778L14.2236 51.2246Z" fill="#1E2832"/>
<path fill-rule="evenodd" clip-rule="evenodd" d="M13.604 51.8356V63.5254L13.2176 63.732V87.7405H12.6875V52.7162L13.604 51.8356Z" fill="#1E2832"/>
<path fill-rule="evenodd" clip-rule="evenodd" d="M13.6032 58.3589V70.0396L13.2168 70.2643V87.7405H12.6777V59.2484L13.6032 58.3589Z" fill="#1E2832"/>
<path fill-rule="evenodd" clip-rule="evenodd" d="M18.7067 52.6712V87.7045H18.1676V63.6871L17.7812 63.4715V51.7817L18.7067 52.6712Z" fill="#1E2832"/>
<path fill-rule="evenodd" clip-rule="evenodd" d="M18.6977 59.1945V87.7045H18.1676V70.2373L17.7812 70.0037V58.3139L18.6977 59.1945Z" fill="#1E2832"/>
<path d="M65.8796 14.5201C51.5931 14.6818 50.434 14.7178 49.0503 15.3467C43.6412 17.6919 40.4065 21.3848 38.9509 26.8298C38.295 29.3367 38.295 50.9191 38.9509 53.3991C40.4065 58.8081 44.1983 62.7706 49.8769 64.8552L52.1861 65.6818H71.72C89.5107 65.6818 91.2538 65.6459 91.3526 65.1517C91.4155 64.8552 91.3886 62.0518 91.2897 58.9429L91.128 53.3002L71.5582 53.1385C52.6444 52.9767 51.9525 52.9408 51.4943 52.3478C51.1349 51.8177 51.036 49.5714 51.036 40.101V28.4831L51.8627 27.5936L52.6534 26.74H69.0244L71.3336 24.4937C72.6185 23.2717 74.6042 21.3938 75.7902 20.3066C76.9763 19.2194 78.8273 17.5301 79.8516 16.5418C80.9118 15.5803 81.6666 14.6908 81.5048 14.565C81.3701 14.4662 74.3436 14.4302 65.8975 14.5291L65.8796 14.5201Z" fill="black"/>
<path d="M80.1659 20.3605C76.6976 23.5951 73.8313 26.3626 73.8313 26.5692C73.7954 26.8029 77.2996 26.8658 83.9307 26.8029C89.4746 26.74 94.3895 26.7669 94.8208 26.9017L95.5755 27.0634V65.6728H107.786L107.849 46.2648L107.948 26.8927H119.898L121.183 28.0159C122.666 29.3007 128.21 34.3864 131.876 37.7828C133.232 39.0407 135.838 41.4128 137.617 43.0661L140.888 46.0402L157.088 46.2019C166.002 46.3007 173.324 46.4355 173.387 46.4625C173.917 46.9207 174.771 48.9065 174.771 49.76C174.771 51.0449 174.043 52.5994 173.217 52.9947C172.884 53.1564 158.957 53.3541 142.263 53.453L111.902 53.6147V65.4931L143.053 65.592C163.611 65.6279 174.34 65.556 174.573 65.3314C174.735 65.1697 175.104 64.9989 175.364 64.9989C176.586 64.9989 180.252 62.7526 182.13 60.8747C185.401 57.6401 186.946 53.8483 186.982 49.158C186.982 42.8864 184.107 37.9715 179.093 35.6892L177.242 34.8626L161.069 34.5661C148.561 34.3325 144.734 34.1348 144.239 33.8113C143.413 33.2812 134.14 24.7363 129.782 20.5402C128.03 18.824 125.793 16.7484 124.867 15.9487L123.151 14.4931H86.4555L80.1479 20.3335L80.1659 20.3605Z" fill="black"/>
<path d="M139.873 15.3737C138.219 16.2003 134.526 19.8303 134.526 20.657C134.526 20.8547 136.341 22.6068 138.516 24.5206L142.505 28.0159L143.727 27.3599C144.886 26.7669 145.704 26.731 164.357 26.731C175.05 26.731 183.891 26.6321 183.99 26.4974C184.089 26.3626 184.152 23.5951 184.089 20.3605L183.99 14.5201H141.58L139.864 15.3737H139.873Z" fill="black"/>
<path d="M46.7318 73.0676V82.3673C46.7318 83.4186 46.6959 84.1644 46.624 84.5867C46.5521 85.009 46.3544 85.4493 46.013 85.8985C45.6716 86.3478 45.2313 86.6892 44.6742 86.9228C44.1171 87.1564 43.4702 87.2732 42.7154 87.2732C41.8888 87.2732 41.152 87.1385 40.5141 86.8599C39.8761 86.5814 39.3999 86.222 39.0854 85.7817C38.7709 85.3414 38.5822 84.8742 38.5283 84.389C38.4744 83.9038 38.4385 82.8705 38.4385 81.2981V73.0587H42.0595V83.4905C42.0595 84.1015 42.0955 84.4878 42.1583 84.6586C42.2212 84.8293 42.356 84.9101 42.5627 84.9101C42.7873 84.9101 42.9401 84.8203 43.003 84.6316C43.0659 84.4429 43.1018 84.0026 43.1018 83.3108V73.0587H46.7228L46.7318 73.0676Z" fill="black"/>
<path d="M56.2117 73.0676V86.9857H53.0399L51.153 80.6601V86.9857H48.125V73.0676H51.153L53.1837 79.3303V73.0676H56.2117Z" fill="black"/>
<path d="M61.288 73.0676V86.9857H57.667V73.0676H61.288Z" fill="black"/>
<path d="M70.03 73.0676V75.8531H67.8826V86.9857H64.2615V75.8531H62.123V73.0676H70.03Z" fill="black"/>
<path d="M70.8574 73.0676H76.8955V75.8531H74.4785V78.4947H76.7427V81.1453H74.4785V84.2093H77.1381V86.9947H70.8664V73.0766L70.8574 73.0676Z" fill="black"/>
<path d="M78.1711 73.0676H80.8756C82.6278 73.0676 83.8048 73.1485 84.4248 73.3102C85.0448 73.472 85.512 73.7326 85.8265 74.1009C86.141 74.4693 86.3476 74.8737 86.4285 75.3229C86.5094 75.7722 86.5453 76.6527 86.5453 77.9736V82.8435C86.5453 84.0925 86.4824 84.9281 86.3656 85.3504C86.2488 85.7727 86.0421 86.1052 85.7546 86.3388C85.4581 86.5724 85.0987 86.7431 84.6674 86.833C84.2361 86.9318 83.5892 86.9767 82.7266 86.9767H78.1621V73.0587L78.1711 73.0676ZM81.7921 75.4487V84.6047C82.3133 84.6047 82.6367 84.4968 82.7535 84.2902C82.8704 84.0835 82.9333 83.5085 82.9333 82.583V77.1739C82.9333 76.5449 82.9153 76.1406 82.8704 75.9609C82.8344 75.7812 82.7356 75.6554 82.5918 75.5655C82.4481 75.4847 82.1785 75.4397 81.7831 75.4397L81.7921 75.4487Z" fill="black"/>
<path d="M91.0022 73.0676H93.7067C95.4588 73.0676 96.6359 73.1485 97.2558 73.3102C97.8758 73.472 98.3431 73.7326 98.6575 74.1009C98.972 74.4693 99.1787 74.8737 99.2596 75.3229C99.3404 75.7722 99.3764 76.6527 99.3764 77.9736V82.8435C99.3764 84.0925 99.3135 84.9281 99.1967 85.3504C99.0798 85.7727 98.8732 86.1052 98.5857 86.3388C98.2892 86.5724 97.9297 86.7431 97.4985 86.833C97.0672 86.9318 96.4202 86.9767 95.5576 86.9767H90.9932V73.0587L91.0022 73.0676ZM94.6232 75.4487V84.6047C95.1443 84.6047 95.4678 84.4968 95.5846 84.2902C95.7014 84.0835 95.7643 83.5085 95.7643 82.583V77.1739C95.7643 76.5449 95.7463 76.1406 95.7014 75.9609C95.6655 75.7812 95.5666 75.6554 95.4229 75.5655C95.2791 75.4847 95.0096 75.4397 94.6142 75.4397L94.6232 75.4487Z" fill="black"/>
<path d="M100.732 73.0676H106.77V75.8531H104.353V78.4947H106.618V81.1453H104.353V84.2093H107.013V86.9947H100.741V73.0766L100.732 73.0676Z" fill="black"/>
<path d="M116.654 73.0676L114.812 86.9857H109.313L107.22 73.0676H111.038C111.479 76.9043 111.802 80.148 111.991 82.7986C112.18 80.112 112.377 77.74 112.584 75.6554L112.835 73.0676H116.654Z" fill="black"/>
<path d="M117.266 73.0676H123.304V75.8531H120.887V78.4947H123.151V81.1453H120.887V84.2093H123.546V86.9947H117.275V73.0766L117.266 73.0676Z" fill="black"/>
<path d="M128.201 73.0676V84.2003H130.402V86.9857H124.58V73.0676H128.201Z" fill="black"/>
<path d="M139.279 81.2172C139.279 82.6189 139.244 83.6073 139.181 84.1913C139.118 84.7754 138.911 85.3055 138.561 85.7817C138.21 86.2669 137.743 86.6353 137.159 86.8869C136.566 87.1475 135.883 87.2733 135.092 87.2733C134.347 87.2733 133.682 87.1475 133.089 86.9049C132.496 86.6623 132.019 86.2939 131.66 85.8087C131.301 85.3235 131.085 84.7933 131.013 84.2183C130.941 83.6432 130.905 82.6459 130.905 81.2082V78.8272C130.905 77.4255 130.941 76.4371 131.004 75.8531C131.067 75.269 131.274 74.7389 131.624 74.2627C131.975 73.7865 132.442 73.4091 133.026 73.1575C133.619 72.8969 134.302 72.7711 135.092 72.7711C135.883 72.7711 136.503 72.8969 137.096 73.1395C137.689 73.3821 138.165 73.7505 138.525 74.2357C138.884 74.7209 139.1 75.2511 139.172 75.8261C139.244 76.4012 139.27 77.3985 139.27 78.8362V81.2172H139.279ZM135.658 76.6438C135.658 75.9968 135.623 75.5835 135.551 75.4038C135.479 75.2241 135.335 75.1343 135.11 75.1343C134.922 75.1343 134.778 75.2061 134.679 75.3499C134.58 75.4937 134.526 75.925 134.526 76.6438V83.1401C134.526 83.9487 134.562 84.4429 134.625 84.6316C134.688 84.8203 134.841 84.9191 135.083 84.9191C135.326 84.9191 135.488 84.8113 135.56 84.5957C135.631 84.38 135.667 83.8589 135.667 83.0412V76.6438H135.658Z" fill="black"/>
<path d="M140.627 73.0676H144.275C145.263 73.0676 146.018 73.1485 146.548 73.3013C147.078 73.454 147.474 73.6786 147.743 73.9752C148.013 74.2717 148.192 74.6221 148.282 75.0354C148.372 75.4487 148.426 76.0957 148.426 76.9672V78.1802C148.426 79.0698 148.336 79.7167 148.148 80.121C147.968 80.5254 147.626 80.8398 147.141 81.0555C146.656 81.2711 146.009 81.379 145.218 81.379H144.248V86.9857H140.627V73.0676ZM144.248 75.4487V78.9889C144.356 78.9889 144.437 78.9889 144.518 78.9889C144.85 78.9889 145.084 78.908 145.209 78.7463C145.335 78.5846 145.398 78.2431 145.398 77.731V76.5898C145.398 76.1136 145.326 75.8081 145.173 75.6644C145.021 75.5206 144.715 75.4487 144.248 75.4487Z" fill="black"/>
<path d="M160.638 73.0676V86.9857H157.475V77.5872L156.208 86.9857H153.962L152.632 77.8028V86.9857H149.46V73.0676H154.141C154.276 73.9033 154.42 74.8916 154.573 76.0238L155.085 79.564L155.92 73.0676H160.629H160.638Z" fill="black"/>
<path d="M162.084 73.0676H168.122V75.8531H165.705V78.4947H167.969V81.1453H165.705V84.2093H168.365V86.9947H162.093V73.0766L162.084 73.0676Z" fill="black"/>
<path d="M177.484 73.0676V86.9857H174.312L172.425 80.6601V86.9857H169.397V73.0676H172.425L174.456 79.3303V73.0676H177.484Z" fill="black"/>
<path d="M186.227 73.0676V75.8531H184.08V86.9857H180.459V75.8531H178.32V73.0676H186.227Z" fill="black"/>
</g>
<defs>
<clipPath id="clip0_4132_5567">
<rect width="187" height="87.7854" fill="white"/>
</clipPath>
</defs>
</svg>
